# xmcd
# 
# Track frame offsets:
#     150
#     22426
#     64250
#     86625
# 
# Disc length: 1218
# 
# Revision: 0
# Processed by: cddbd v1.5.2PL0 Copyright (c) Steve Scherf et al.
# Submitted via: fre:ac v1.0.17
# 
DISCID=3504c004
DTITLE=赤城みりあ （CV.黒沢ともよ） - THE IDOLM@STER CINDERELLA MASTER 017 赤城みりあ
DYEAR=2013
DGENRE=Game
TTITLE0=Romantic Now
TTITLE1=ドラマ「目指せ！ シンデレラNO.1！ -赤城みりあ編-」
TTITLE2=Romantic Now オリジナル・カラオケ
TTITLE3=ボーナス・トラック
EXTD=
EXTT0=
EXTT1=
EXTT2=
EXTT3=
PLAYORDER=
